<svg xmlns="http://www.w3.org/2000/svg" viewBox="0 0 512 512">
  <rect width="512" height="512" rx="96" fill="#0E2A3D"/>
  <circle cx="256" cy="256" r="180" fill="none" stroke="#C7A04B" stroke-width="6"/>
  <circle cx="256" cy="256" r="146" fill="none" stroke="#C7A04B" stroke-width="3" opacity="0.6"/>
  <!-- tick marks -->
  <g stroke="#C7A04B">
    <line x1="256" y1="76" x2="256" y2="130" stroke-width="6"/>
    <line x1="436" y1="256" x2="382" y2="256" stroke-width="6"/>
    <line x1="256" y1="436" x2="256" y2="382" stroke-width="6"/>
    <line x1="76" y1="256" x2="130" y2="256" stroke-width="6"/>
    <line x1="383" y1="129" x2="348" y2="164" stroke-width="3"/>
    <line x1="383" y1="383" x2="348" y2="348" stroke-width="3"/>
    <line x1="129" y1="383" x2="164" y2="348" stroke-width="3"/>
    <line x1="129" y1="129" x2="164" y2="164" stroke-width="3"/>
  </g>
  <!-- N arrow (red) -->
  <polygon points="256,90 270,256 256,240 242,256" fill="#B5482F"/>
  <!-- S arrow (white) -->
  <polygon points="256,422 270,256 256,272 242,256" fill="#EFE7D8"/>
  <circle cx="256" cy="256" r="12" fill="#C7A04B"/>
</svg>
